<svg width="37" height="37" viewBox="0 0 37 37" fill="none" xmlns="http://www.w3.org/2000/svg">
<g clip-path="url(#clip0_7_114)">
<path d="M6.55209 2.98226e-06H30.4479C31.3086 -0.000828996 32.1609 0.172423 32.9563 0.509844C33.7516 0.847266 34.4742 1.34223 35.0827 1.96641C35.6913 2.5906 36.1739 3.33174 36.5029 4.14744C36.8319 4.96313 37.0008 5.83736 37 6.72009V30.2799C37.0008 31.1626 36.8319 32.0369 36.5029 32.8526C36.1739 33.6683 35.6913 34.4094 35.0827 35.0336C34.4742 35.6578 33.7516 36.1527 32.9563 36.4902C32.1609 36.8276 31.3086 37.0008 30.4479 37H6.55209C5.69143 37.0008 4.83905 36.8276 4.04375 36.4902C3.24845 36.1527 2.52583 35.6578 1.91725 35.0336C1.30868 34.4094 0.826084 33.6683 0.497098 32.8526C0.168113 32.0369 -0.000808271 31.1626 2.9077e-06 30.2799V6.72009C-0.000808271 5.83736 0.168113 4.96313 0.497098 4.14744C0.826084 3.33174 1.30868 2.5906 1.91725 1.96641C2.52583 1.34223 3.24845 0.847266 4.04375 0.509844C4.83905 0.172423 5.69143 -0.000828996 6.55209 2.98226e-06Z" fill="#F7EFE2"/>
<path d="M14.8617 22.1367H9.12666L7.95499 25.8684C7.9419 25.9361 7.90459 25.9964 7.85039 26.0373C7.7962 26.0783 7.72903 26.097 7.66208 26.0897H4.76374C4.59416 26.0897 4.54791 25.9949 4.59416 25.8051L9.55833 11.2107C9.60458 11.0526 9.65083 10.9103 9.71249 10.7205C9.77454 10.3816 9.80551 10.0375 9.80499 9.69273C9.80037 9.65313 9.81052 9.6132 9.83339 9.58095C9.85626 9.54869 9.89017 9.52649 9.92833 9.5188H13.9212C14.0292 9.5188 14.1062 9.56623 14.1217 9.64529L19.7487 25.8526C19.795 26.0265 19.7487 26.1056 19.5946 26.1056H16.3725C16.318 26.1109 16.2634 26.0964 16.2183 26.0646C16.1732 26.0328 16.1404 25.9857 16.1258 25.9316L14.8617 22.1367ZM10.0208 18.9902H13.9367C13.8442 18.6581 13.7208 18.2628 13.5821 17.8517C13.4433 17.4406 13.3046 16.9662 13.1658 16.4919C13.0271 16.0175 12.8729 15.5273 12.7187 15.0372C12.5646 14.547 12.4258 14.0885 12.3025 13.6299C12.1792 13.1714 12.0712 12.7761 11.9633 12.3966H11.9325C11.7939 13.0857 11.619 13.7667 11.4083 14.4363C11.1771 15.1953 10.9458 15.9859 10.6992 16.7765C10.4987 17.5829 10.2521 18.3261 10.0208 18.9902Z" fill="#2C402D"/>
<path d="M28.8908 20.682H24.0037C24.0621 21.181 24.2251 21.6611 24.4817 22.0893C24.7541 22.5154 25.1467 22.8464 25.6071 23.038C26.2302 23.3113 26.9028 23.446 27.5804 23.4333C28.1188 23.4231 28.6552 23.365 29.1837 23.2593C29.6539 23.1962 30.1147 23.0741 30.5558 22.8957C30.6329 22.8324 30.6792 22.864 30.6792 23.0222V25.4414C30.6764 25.5057 30.6661 25.5694 30.6483 25.6311C30.6205 25.6755 30.5837 25.7132 30.5404 25.7418C30.0473 25.9639 29.5296 26.1232 28.9987 26.2162C28.2776 26.3584 27.5438 26.422 26.8096 26.4059C25.6379 26.4059 24.6512 26.2162 23.8496 25.8525C23.0952 25.5167 22.4294 25.0018 21.9071 24.3504C21.419 23.7412 21.057 23.0364 20.8433 22.279C20.3916 20.7015 20.4131 19.0211 20.905 17.4563C21.1508 16.6647 21.5434 15.9291 22.0612 15.2901C22.5711 14.6582 23.2072 14.146 23.9267 13.788C24.6512 13.4243 25.5146 13.2978 26.5012 13.2978C27.3233 13.2782 28.1393 13.4456 28.8908 13.788C29.5224 14.0688 30.078 14.5029 30.5096 15.0529C30.9194 15.593 31.2325 16.2033 31.4346 16.8555C31.6306 17.4787 31.7295 18.1297 31.7275 18.7846C31.7275 19.164 31.7121 19.4961 31.6967 19.7965C31.6812 20.0969 31.6504 20.3183 31.635 20.4606C31.6282 20.5154 31.6029 20.566 31.5634 20.6035C31.524 20.6411 31.4729 20.6633 31.4192 20.6662C31.3267 20.6662 31.1571 20.682 30.9104 20.6978C30.6136 20.7324 30.315 20.7482 30.0162 20.7452C29.6617 20.7452 29.2917 20.682 28.8908 20.682ZM24.0037 18.3734H27.2567C27.6575 18.3734 27.9504 18.3734 28.1354 18.3576C28.2621 18.3468 28.3841 18.3033 28.49 18.2311V18.073C28.4906 17.8741 28.4594 17.6765 28.3975 17.488C28.2625 17.0553 27.994 16.6794 27.6325 16.417C27.271 16.1546 26.836 16.0199 26.3933 16.0333C25.9749 16.0092 25.5587 16.1099 25.1948 16.3231C24.831 16.5364 24.5351 16.8531 24.3429 17.235C24.163 17.5901 24.0481 17.9759 24.0037 18.3734Z" fill="#2C402D"/>
</g>
<defs>
<clipPath id="clip0_7_114">
<rect width="37" height="37" fill="white"/>
</clipPath>
</defs>
</svg>
