<svg width="37" height="37" viewBox="0 0 37 37" fill="none" xmlns="http://www.w3.org/2000/svg">
<g clip-path="url(#clip0_7_161)">
<path d="M6.55209 2.98226e-06H30.4479C31.3086 -0.000828996 32.1609 0.172423 32.9563 0.509844C33.7516 0.847266 34.4742 1.34223 35.0827 1.96641C35.6913 2.5906 36.1739 3.33174 36.5029 4.14744C36.8319 4.96313 37.0008 5.83736 37 6.72009V30.2799C37.0008 31.1626 36.8319 32.0369 36.5029 32.8526C36.1739 33.6683 35.6913 34.4094 35.0827 35.0336C34.4742 35.6578 33.7516 36.1527 32.9563 36.4902C32.1609 36.8276 31.3086 37.0008 30.4479 37H6.55209C5.69143 37.0008 4.83905 36.8276 4.04375 36.4902C3.24845 36.1527 2.52583 35.6578 1.91725 35.0336C1.30868 34.4094 0.826084 33.6683 0.497098 32.8526C0.168113 32.0369 -0.000808271 31.1626 2.9077e-06 30.2799V6.72009C-0.000808271 5.83736 0.168113 4.96313 0.497098 4.14744C0.826084 3.33174 1.30868 2.5906 1.91725 1.96641C2.52583 1.34223 3.24845 0.847266 4.04375 0.509844C4.83905 0.172423 5.69143 -0.000828996 6.55209 2.98226e-06Z" fill="#F7EFE2"/>
<path d="M14.6459 30.359C16.7745 30.359 18.5 28.5892 18.5 26.406V22.453H14.6459C12.5173 22.453 10.7917 24.2228 10.7917 26.406C10.7917 28.5892 12.5173 30.359 14.6459 30.359Z" fill="#2C402D"/>
<path d="M10.7917 18.5C10.7917 16.3168 12.5173 14.547 14.6459 14.547H18.5V22.453H14.6459C12.5173 22.453 10.7917 20.6832 10.7917 18.5Z" fill="#2C402D"/>
<path d="M10.7917 10.594C10.7917 8.41081 12.5173 6.64099 14.6459 6.64099H18.5V14.547H14.6459C12.5173 14.547 10.7917 12.7772 10.7917 10.594Z" fill="#2C402D"/>
<path d="M18.5 6.64099H22.3542C24.4828 6.64099 26.2083 8.41081 26.2083 10.594C26.2083 12.7772 24.4828 14.547 22.3542 14.547H18.5V6.64099Z" fill="#2C402D"/>
<path d="M26.2083 18.5C26.2083 20.6832 24.4828 22.453 22.3542 22.453C20.2256 22.453 18.5 20.6832 18.5 18.5C18.5 16.3168 20.2256 14.547 22.3542 14.547C24.4828 14.547 26.2083 16.3168 26.2083 18.5Z" fill="#2C402D"/>
</g>
<defs>
<clipPath id="clip0_7_161">
<rect width="37" height="37" fill="white"/>
</clipPath>
</defs>
</svg>
