<svg width="37" height="37" viewBox="0 0 37 37" fill="none" xmlns="http://www.w3.org/2000/svg">
<g clip-path="url(#clip0_7_126)">
<path d="M6.55209 2.98226e-06H30.4479C31.3086 -0.000828996 32.1609 0.172423 32.9563 0.509844C33.7516 0.847266 34.4742 1.34223 35.0827 1.96641C35.6913 2.5906 36.1739 3.33174 36.5029 4.14744C36.8319 4.96313 37.0008 5.83736 37 6.72009V30.2799C37.0008 31.1626 36.8319 32.0369 36.5029 32.8526C36.1739 33.6683 35.6913 34.4094 35.0827 35.0336C34.4742 35.6578 33.7516 36.1527 32.9563 36.4902C32.1609 36.8276 31.3086 37.0008 30.4479 37H6.55209C5.69143 37.0008 4.83905 36.8276 4.04375 36.4902C3.24845 36.1527 2.52583 35.6578 1.91725 35.0336C1.30868 34.4094 0.826084 33.6683 0.497098 32.8526C0.168113 32.0369 -0.000808271 31.1626 2.9077e-06 30.2799V6.72009C-0.000808271 5.83736 0.168113 4.96313 0.497098 4.14744C0.826084 3.33174 1.30868 2.5906 1.91725 1.96641C2.52583 1.34223 3.24845 0.847266 4.04375 0.509844C4.83905 0.172423 5.69143 -0.000828996 6.55209 2.98226e-06Z" fill="#F7EFE2"/>
<path d="M17.9296 22.1999H12.1946L11.0229 25.9158C11.0098 25.9835 10.9725 26.0437 10.9183 26.0847C10.8641 26.1257 10.797 26.1444 10.73 26.1371H7.83168C7.66209 26.1371 7.61584 26.0423 7.66209 25.8525L12.6263 11.1948C12.6725 11.0367 12.7188 10.8628 12.7804 10.673C12.8425 10.3341 12.8734 9.99005 12.8729 9.64524C12.8683 9.60564 12.8784 9.56572 12.9013 9.53346C12.9242 9.50121 12.9581 9.47901 12.9963 9.47131H16.9892C17.1125 9.47131 17.1742 9.51875 17.1896 9.59781L22.8167 25.8841C22.8629 26.0581 22.8167 26.1371 22.6625 26.1371H19.4404C19.3859 26.1425 19.3313 26.128 19.2862 26.0962C19.2411 26.0644 19.2084 26.0173 19.1938 25.9632L17.9296 22.1999ZM13.0888 18.9901H17.0046C16.9121 18.6581 16.7888 18.2628 16.65 17.8517C16.5113 17.4405 16.3725 16.9662 16.2338 16.4918C16.095 16.0175 15.9408 15.5273 15.7867 15.0371C15.6325 14.547 15.4938 14.0884 15.3704 13.6299C15.2471 13.1713 15.1392 12.776 15.0313 12.3965H15.0004C14.8619 13.0857 14.6869 13.7666 14.4763 14.4363C14.245 15.1952 14.0138 15.9858 13.7671 16.7764C13.5513 17.5829 13.32 18.326 13.0888 18.9901Z" fill="#2C402D"/>
<path d="M26.1775 12.1752C25.9244 12.1808 25.6728 12.1348 25.4373 12.0398C25.2017 11.9448 24.9869 11.8027 24.8054 11.6217C24.4522 11.2256 24.2641 10.7035 24.2812 10.167C24.2721 9.90565 24.3169 9.64522 24.4125 9.40274C24.5081 9.16026 24.6525 8.94118 24.8362 8.75978C25.2068 8.40056 25.6985 8.20225 26.2083 8.20636C26.8096 8.20636 27.2721 8.39611 27.6112 8.75978C27.9528 9.14318 28.1353 9.64796 28.12 10.167C28.1294 10.4342 28.0865 10.7006 27.9938 10.9504C27.9011 11.2003 27.7606 11.4286 27.5804 11.6217C27.3988 11.8115 27.1795 11.9591 26.9375 12.0546C26.6955 12.1501 26.4363 12.1912 26.1775 12.1752ZM24.4508 25.9V13.7247C24.4508 13.5666 24.5125 13.5034 24.6512 13.5034H27.7037C27.8425 13.5034 27.9042 13.5824 27.9042 13.7247V25.9C27.9042 26.0739 27.8425 26.1529 27.7037 26.1529H24.6821C24.6497 26.1557 24.6171 26.1509 24.5868 26.1389C24.5564 26.1269 24.5291 26.108 24.5069 26.0837C24.4847 26.0594 24.4681 26.0302 24.4584 25.9984C24.4486 25.9666 24.4461 25.9329 24.4508 25.9Z" fill="#2C402D"/>
</g>
<defs>
<clipPath id="clip0_7_126">
<rect width="37" height="37" fill="white"/>
</clipPath>
</defs>
</svg>
