<svg width="38" height="37" viewBox="0 0 38 37" fill="none" xmlns="http://www.w3.org/2000/svg">
<g clip-path="url(#clip0_7_138)">
<path d="M6.72917 2.98226e-06H31.2708C32.1548 -0.000828996 33.0302 0.172423 33.847 0.509844C34.6638 0.847266 35.4059 1.34223 36.0309 1.96641C36.656 2.5906 37.1516 3.33174 37.4895 4.14744C37.8274 4.96313 38.0008 5.83736 38 6.72009V30.2799C38.0008 31.1626 37.8274 32.0369 37.4895 32.8526C37.1516 33.6683 36.656 34.4094 36.0309 35.0336C35.4059 35.6578 34.6638 36.1527 33.847 36.4902C33.0302 36.8276 32.1548 37.0008 31.2708 37H6.72917C5.84525 37.0008 4.96984 36.8276 4.15304 36.4902C3.33625 36.1527 2.5941 35.6578 1.96907 35.0336C1.34405 34.4094 0.848411 33.6683 0.510534 32.8526C0.172656 32.0369 -0.000830116 31.1626 2.98629e-06 30.2799V6.72009C-0.000830116 5.83736 0.172656 4.96313 0.510534 4.14744C0.848411 3.33174 1.34405 2.5906 1.96907 1.96641C2.5941 1.34223 3.33625 0.847266 4.15304 0.509844C4.96984 0.172423 5.84525 -0.000828996 6.72917 2.98226e-06Z" fill="#F7EFE2"/>
<path d="M13.8067 9.67685V25.8999C13.8067 26.0739 13.7275 26.1529 13.585 26.1529H10.4817C10.3392 26.1529 10.2758 26.0739 10.2758 25.8999V9.67685C10.2758 9.53454 10.355 9.4713 10.4975 9.4713H13.585C13.609 9.46752 13.6335 9.46866 13.6571 9.47466C13.6806 9.48065 13.7027 9.49137 13.7219 9.50617C13.7412 9.52096 13.7572 9.53952 13.7691 9.56071C13.7809 9.5819 13.7883 9.60528 13.7908 9.62942C13.7968 9.63566 13.8013 9.64316 13.8041 9.65136C13.8068 9.65956 13.8077 9.66827 13.8067 9.67685Z" fill="#2C402D"/>
<path d="M22.9266 26.406C21.753 26.4252 20.5899 26.1821 19.5225 25.6944C18.5294 25.2306 17.697 24.482 17.1316 23.544C16.5458 22.5795 16.2608 21.3778 16.2608 19.9389C16.2448 18.7687 16.5456 17.616 17.1316 16.6025C17.7325 15.5725 18.6028 14.7253 19.6491 14.1517C20.7575 13.535 22.0875 13.2346 23.655 13.2346C23.766 13.2333 23.877 13.2386 23.9875 13.2504C24.13 13.2662 24.2883 13.2662 24.4783 13.282V8.28545C24.4783 8.17476 24.5258 8.11152 24.6366 8.11152H27.8508C27.8863 8.10672 27.9223 8.11544 27.9516 8.13595C27.981 8.15647 28.0015 8.18726 28.0091 8.2222V23.3068C28.0091 23.5914 28.025 23.9077 28.0408 24.2555C28.0566 24.6034 28.0883 24.9038 28.1041 25.1726C28.1075 25.226 28.0941 25.2791 28.0657 25.3245C28.0373 25.3699 27.9953 25.4052 27.9458 25.4256C27.1165 25.7737 26.2508 26.0283 25.365 26.1846C24.5603 26.3302 23.7444 26.4043 22.9266 26.406ZM24.4783 23.2436V16.2863C24.3373 16.2523 24.1946 16.2259 24.0508 16.2072C23.8766 16.1914 23.7025 16.1756 23.5283 16.1756C22.9077 16.1686 22.2943 16.3096 21.7391 16.5867C21.1981 16.856 20.7348 17.2587 20.3933 17.7568C20.045 18.2628 19.8708 18.9427 19.8708 19.7649C19.857 20.3199 19.9483 20.8725 20.14 21.3936C20.2931 21.815 20.5362 22.1981 20.8525 22.5162C21.1577 22.8071 21.5262 23.0236 21.9291 23.1487C22.3533 23.2874 22.797 23.3568 23.2433 23.3542C23.4808 23.3542 23.7025 23.3384 23.9083 23.3226C24.1018 23.3375 24.2962 23.3106 24.4783 23.2436Z" fill="#2C402D"/>
</g>
<defs>
<clipPath id="clip0_7_138">
<rect width="38" height="37" fill="white"/>
</clipPath>
</defs>
</svg>
