<svg width="37" height="37" viewBox="0 0 37 37" fill="none" xmlns="http://www.w3.org/2000/svg">
<g clip-path="url(#clip0_7_149)">
<path d="M6.55209 2.98226e-06H30.4479C31.3086 -0.000828996 32.1609 0.172423 32.9563 0.509844C33.7516 0.847266 34.4742 1.34223 35.0827 1.96641C35.6913 2.5906 36.1739 3.33174 36.5029 4.14744C36.8319 4.96313 37.0008 5.83736 37 6.72009V30.2799C37.0008 31.1626 36.8319 32.0369 36.5029 32.8526C36.1739 33.6683 35.6913 34.4094 35.0827 35.0336C34.4742 35.6578 33.7516 36.1527 32.9563 36.4902C32.1609 36.8276 31.3086 37.0008 30.4479 37H6.55209C5.69143 37.0008 4.83905 36.8276 4.04375 36.4902C3.24845 36.1527 2.52583 35.6578 1.91725 35.0336C1.30868 34.4094 0.826084 33.6683 0.497098 32.8526C0.168113 32.0369 -0.000808271 31.1626 2.9077e-06 30.2799V6.72009C-0.000808271 5.83736 0.168113 4.96313 0.497098 4.14744C0.826084 3.33174 1.30868 2.5906 1.91725 1.96641C2.52583 1.34223 3.24845 0.847266 4.04375 0.509844C4.83905 0.172423 5.69143 -0.000828996 6.55209 2.98226e-06Z" fill="#F7EFE2"/>
<path d="M8.32501 25.9474V9.67688C8.32501 9.5662 8.37126 9.50295 8.47918 9.50295C8.74126 9.50295 8.98793 9.50295 9.34251 9.48714C9.6971 9.47133 10.0979 9.47133 10.5142 9.45552C10.9304 9.4397 11.3775 9.4397 11.8554 9.42389C12.3333 9.40808 12.7958 9.40808 13.2583 9.40808C14.5225 9.40808 15.5708 9.5662 16.4342 9.89825C17.2081 10.1678 17.9138 10.6107 18.5 11.1948C18.9968 11.706 19.3806 12.3208 19.6254 12.9974C19.8588 13.6563 19.9788 14.3519 19.98 15.053C19.98 16.4128 19.6717 17.5354 19.055 18.4209C18.4355 19.3052 17.5705 19.9774 16.5729 20.35C15.5246 20.7453 14.3683 20.8876 13.1042 20.8876C12.7342 20.8876 12.4875 20.8876 12.3333 20.8718C12.1792 20.8559 11.9633 20.8559 11.6704 20.8559V25.9316C11.6739 25.9576 11.6722 25.9841 11.6655 26.0094C11.6587 26.0347 11.6471 26.0584 11.6313 26.0791C11.6155 26.0997 11.5958 26.1169 11.5734 26.1296C11.551 26.1423 11.5263 26.1502 11.5008 26.153H8.51001C8.38668 26.153 8.32501 26.0897 8.32501 25.9474ZM11.6858 12.5547V17.8675C11.9017 17.8833 12.1021 17.8991 12.2871 17.8991H13.1042C13.706 17.8998 14.3043 17.8038 14.8771 17.6145C15.3686 17.4663 15.8076 17.1752 16.1413 16.7765C16.465 16.3812 16.6192 15.8436 16.6192 15.1478C16.6337 14.6537 16.5107 14.1656 16.2646 13.7406C16.0075 13.33 15.6295 13.0143 15.1854 12.8393C14.6067 12.6068 13.9874 12.4991 13.3663 12.523C12.9654 12.523 12.6108 12.523 12.3179 12.5389C12.1072 12.5247 11.8957 12.53 11.6858 12.5547Z" fill="#2C402D"/>
<path d="M29.6 16.903C29.1345 16.6515 28.636 16.4704 28.12 16.3654C27.5533 16.2337 26.9744 16.1648 26.3933 16.1598C26.0813 16.1488 25.7695 16.1861 25.4683 16.2705C25.2763 16.3115 25.106 16.4242 24.9904 16.5867C24.9125 16.715 24.8699 16.8625 24.8671 17.0137C24.8742 17.1641 24.9283 17.3082 25.0212 17.4248C25.1674 17.6005 25.3454 17.7455 25.5454 17.8517C25.9 18.0414 26.27 18.2154 26.64 18.3735C27.4729 18.6611 28.2698 19.0485 29.0142 19.5278C29.5204 19.8543 29.9391 20.3054 30.2321 20.8402C30.4798 21.3446 30.6016 21.9042 30.5867 22.4688C30.5992 23.2161 30.3894 23.9497 29.9854 24.5718C29.5554 25.203 28.9554 25.692 28.2587 25.979C27.5033 26.3111 26.5783 26.485 25.4683 26.485C24.7645 26.4879 24.0622 26.4191 23.3717 26.2795C22.8279 26.1831 22.2991 26.0129 21.7992 25.7735C21.7454 25.7458 21.7007 25.7026 21.6706 25.6493C21.6405 25.5959 21.6262 25.5346 21.6296 25.4731V22.7218C21.6282 22.6948 21.6331 22.6678 21.6438 22.6431C21.6546 22.6183 21.6708 22.5966 21.6912 22.5795C21.713 22.5665 21.7382 22.561 21.7632 22.5639C21.7881 22.5667 21.8116 22.5777 21.83 22.5953C22.4239 22.9544 23.0689 23.2158 23.7417 23.3701C24.3357 23.5286 24.947 23.6083 25.5608 23.6072C26.1467 23.6072 26.5629 23.5282 26.8404 23.3859C26.9642 23.3272 27.0691 23.2336 27.1428 23.116C27.2165 22.9984 27.256 22.8616 27.2567 22.7218C27.2567 22.5004 27.1333 22.2949 26.8867 22.0893C26.64 21.8837 26.1312 21.6466 25.3758 21.3461C24.6009 21.0661 23.8649 20.6833 23.1867 20.2077C22.7036 19.8545 22.3033 19.3954 22.015 18.8637C21.769 18.3643 21.6471 17.8102 21.6604 17.2508C21.6627 16.5761 21.8439 15.9148 22.1846 15.3376C22.5762 14.7028 23.1383 14.1977 23.8033 13.8829C24.5279 13.5034 25.4375 13.3295 26.5321 13.3295C27.1718 13.3297 27.8107 13.3772 28.4437 13.4718C28.8989 13.5349 29.3444 13.6571 29.7696 13.8355C29.8373 13.8601 29.8928 13.9113 29.9237 13.9778C29.9415 14.0395 29.9519 14.1032 29.9546 14.1675V16.7449C29.9548 16.7756 29.948 16.8059 29.9346 16.8334C29.9212 16.8609 29.9016 16.8847 29.8775 16.903C29.7878 16.936 29.6897 16.936 29.6 16.903Z" fill="#2C402D"/>
</g>
<defs>
<clipPath id="clip0_7_149">
<rect width="37" height="37" fill="white"/>
</clipPath>
</defs>
</svg>
