<svg width="38" height="37" viewBox="0 0 38 37" fill="none" xmlns="http://www.w3.org/2000/svg">
<g clip-path="url(#clip0_7_185)">
<path d="M6.72917 2.98226e-06H31.2708C32.1548 -0.000828996 33.0302 0.172423 33.847 0.509844C34.6638 0.847266 35.4059 1.34223 36.0309 1.96641C36.656 2.5906 37.1516 3.33174 37.4895 4.14744C37.8274 4.96313 38.0008 5.83736 38 6.72009V30.2799C38.0008 31.1626 37.8274 32.0369 37.4895 32.8526C37.1516 33.6683 36.656 34.4094 36.0309 35.0336C35.4059 35.6578 34.6638 36.1527 33.847 36.4902C33.0302 36.8276 32.1548 37.0008 31.2708 37H6.72917C5.84525 37.0008 4.96984 36.8276 4.15304 36.4902C3.33625 36.1527 2.5941 35.6578 1.96907 35.0336C1.34405 34.4094 0.848411 33.6683 0.510534 32.8526C0.172656 32.0369 -0.000830116 31.1626 2.98629e-06 30.2799V6.72009C-0.000830116 5.83736 0.172656 4.96313 0.510534 4.14744C0.848411 3.33174 1.34405 2.5906 1.96907 1.96641C2.5941 1.34223 3.33625 0.847266 4.15304 0.509844C4.96984 0.172423 5.84525 -0.000828996 6.72917 2.98226e-06Z" fill="#F7EFE2"/>
<path d="M9.02502 25.9474V9.67688C9.02502 9.5662 9.07252 9.50295 9.18336 9.50295C9.45252 9.50295 9.70586 9.50295 10.07 9.48714C10.4342 9.47133 10.8459 9.47133 11.2734 9.45552C11.7009 9.4397 12.16 9.4397 12.6509 9.42389C13.1417 9.40808 13.6167 9.40808 14.0917 9.40808C15.39 9.40808 16.4667 9.5662 17.3534 9.89825C18.1482 10.1678 18.8729 10.6107 19.475 11.1948C19.9852 11.706 20.3794 12.3208 20.6309 12.9974C20.8705 13.6563 20.9938 14.3519 20.995 15.053C20.995 16.4128 20.6784 17.5354 20.045 18.4209C19.4088 19.3052 18.5204 19.9774 17.4959 20.35C16.4192 20.7453 15.2317 20.8876 13.9334 20.8876C13.5534 20.8876 13.3 20.8876 13.1417 20.8718C12.9834 20.8559 12.7617 20.8559 12.4609 20.8559V25.9316C12.4644 25.9576 12.4627 25.9841 12.4558 26.0094C12.4489 26.0347 12.4369 26.0584 12.4207 26.0791C12.4044 26.0997 12.3842 26.1169 12.3612 26.1296C12.3382 26.1423 12.3128 26.1502 12.2867 26.153H9.21502C9.08836 26.153 9.02502 26.0897 9.02502 25.9474ZM12.4767 12.5547V17.8675C12.6984 17.8833 12.9042 17.8991 13.0942 17.8991H13.9334C14.5515 17.8998 15.1659 17.8038 15.7542 17.6145C16.2589 17.4663 16.7099 17.1752 17.0525 16.7765C17.385 16.3812 17.5434 15.8436 17.5434 15.1478C17.5583 14.6537 17.4319 14.1656 17.1792 13.7406C16.9152 13.33 16.5269 13.0143 16.0709 12.8393C15.4765 12.6068 14.8404 12.4991 14.2025 12.523C13.7909 12.523 13.4267 12.523 13.1259 12.5389C12.9094 12.5247 12.6922 12.53 12.4767 12.5547Z" fill="#2C402D"/>
<path d="M23.2117 13.4718H25.9825C26.0576 13.4736 26.1301 13.499 26.1898 13.5444C26.2495 13.5899 26.2933 13.653 26.315 13.7247C26.3633 13.852 26.3952 13.9848 26.41 14.12C26.4417 14.2782 26.4733 14.4521 26.4892 14.6102C26.505 14.7683 26.5208 14.9739 26.5208 15.1794C26.9963 14.6252 27.5707 14.1641 28.215 13.8196C28.951 13.4113 29.7798 13.199 30.6217 13.203C30.6477 13.1994 30.6742 13.2012 30.6996 13.208C30.725 13.2149 30.7487 13.2268 30.7694 13.2431C30.79 13.2593 30.8072 13.2795 30.8199 13.3025C30.8327 13.3255 30.8406 13.3508 30.8433 13.3769V16.5235C30.8433 16.65 30.7642 16.6974 30.59 16.6974C30.0156 16.6786 29.4412 16.7317 28.88 16.8555C28.4226 16.9498 27.9767 17.0929 27.55 17.2824C27.2437 17.4204 26.9689 17.6195 26.7425 17.8675V25.9316C26.7425 26.0897 26.6792 26.153 26.5367 26.153H23.4175C23.3883 26.1579 23.3584 26.1568 23.3296 26.1498C23.3008 26.1428 23.2738 26.1301 23.2501 26.1123C23.2264 26.0946 23.2066 26.0722 23.1918 26.0466C23.177 26.021 23.1676 25.9926 23.1642 25.9632V17.1401C23.1642 16.7606 23.1642 16.3653 23.1483 15.9542C23.1325 15.5431 23.1325 15.132 23.1167 14.7209C23.1167 14.3572 23.085 14.0094 23.0533 13.6457C23.0491 13.627 23.0487 13.6077 23.052 13.5888C23.0553 13.5699 23.0623 13.5519 23.0726 13.5357C23.0829 13.5196 23.0963 13.5056 23.112 13.4946C23.1277 13.4836 23.1454 13.4759 23.1642 13.4718C23.1642 13.4559 23.1958 13.4559 23.2117 13.4718Z" fill="#2C402D"/>
</g>
<defs>
<clipPath id="clip0_7_185">
<rect width="38" height="37" fill="white"/>
</clipPath>
</defs>
</svg>
